<?xml version="1.0" encoding="utf-8"?>
<!-- Generator: Adobe Illustrator 27.0.0, SVG Export Plug-In . SVG Version: 6.00 Build 0)  -->
<svg version="1.1" id="Capa_1" xmlns="http://www.w3.org/2000/svg" xmlns:xlink="http://www.w3.org/1999/xlink" x="0px" y="0px"
	 viewBox="0 0 595.28 841.89" style="enable-background:new 0 0 595.28 841.89;" xml:space="preserve">
<style type="text/css">
	.st0{opacity:0.3;fill:#FFFFFF;}
	.st1{fill:#1A6F68;}
</style>
<circle class="st0" cx="297.12" cy="465.17" r="273.95"/>
<g id="wKdBh8.tif">
	<g>
		<path class="st1" d="M305.25,484.24c4.81-2.76,9.36-5.47,14-8.02c12.29-6.75,25.11-12.09,38.89-14.11
			c14.51-2.12,28.26-0.42,39.44,11.46c-9.44,3.67-18.73,7.34-28.06,10.88c-17.21,6.53-32.01,17.29-46.28,29.06
			c-8.6,7.09-17.25,14.18-26.26,20.67c-9.39,6.77-20.09,10.09-31.41,11.39c-13.5,1.55-26.84,0.99-39.5-4.41
			c-5.81-2.48-11.05-6.47-16.47-9.92c-2.08-1.32-3.95-3.04-5.55-4.29c9.4-7.66,19.04-15.03,28.17-23.05
			c21.51-18.91,40.29-40.55,56.51-64.66c8.21-12.2,19.29-20.88,31.31-28.36c11.64-7.24,23.84-13.23,36.88-17.06
			c19.88-5.83,39.19-4.06,57.97,5.03c12.23,5.93,22.26,14.93,31.56,24.9c12.7,13.62,25.2,27.46,37.77,41.22
			c0.29,0.32,0.52,0.71,1.37,1.9c-2.84,1.27-5.32,3.08-7.98,3.44c-8.97,1.22-16.61-2.11-23.53-8.17
			c-11.96-10.48-23.24-21.96-37.43-29.31c-13.3-6.89-27.23-10.81-42.09-9.83c-13.6,0.89-25.76,6.18-36.4,15.1
			c-14.42,12.08-24.79,27.54-32.83,44.86C305.21,483.24,305.28,483.6,305.25,484.24z"/>
		<path class="st1" d="M304.24,333.47c-21.86,21.29-36.57,51.19-22.14,95.14c-35.94,6.79-71.93,6.64-108.02,0.31
			c2.8,3.94,6.54,5.48,10.54,6.86c20.25,7.02,41.12,6.2,61.97,5.73c4-0.09,8-0.01,11.96-0.01c-6.21,6.65-39.54,11.99-59.29,9.67
			c-28.58-3.35-51.08-17.89-69.12-41.31c8.95-5.78,18.46-9.01,28.5-10.55c11.44-1.76,22.96-1.36,34.35,0.11
			c16.02,2.07,31.58,6.55,46.88,12.01c9.16,3.27,18.36,6.4,27.57,9.5c1.21,0.41,2.58,0.31,3.87,0.45c0.14-0.3,0.29-0.6,0.43-0.9
			c-1.3-2.06-2.57-4.13-3.89-6.17c-6.24-9.63-13.21-18.82-18.6-28.96c-11.51-21.65-8.91-44.35,7.47-62.18
			c11.38-12.39,23.88-23.64,36.06-35.2c13.51-12.82,26.78-25.84,35.73-42.87c2.45-4.67,4.54-9.55,7.09-14.94
			c1.15,6.67,2.68,12.82,3.19,19.06c1.36,16.74,3.25,33.52,3.15,50.27c-0.18,28.43-5.18,55.97-18.67,81.13
			c-7.66,14.28-17.62,26.54-29.68,36.88c-0.24,0.21-0.58,0.3-1.67,0.84c-0.96-4.85-2.31-9.42-2.69-14.08
			c-0.89-10.86,1.57-21.33,4.37-31.67c3.2-11.84,6.59-23.63,9.88-35.44C303.75,336.13,303.91,335.07,304.24,333.47z"/>
		<path class="st1" d="M310.95,590.49c-4.07,9.99-8.37,19.87-17.15,26.39c-2.3,1.71-5.2,3.16-7.95,3.44
			c-9.69,0.99-12.8-6.11-11.44-16.11c0.09-0.64,0.25-1.27-0.16-2.25c-0.77,1.07-1.58,2.12-2.31,3.23
			c-3.81,5.77-7.93,11.2-14.3,14.03c-8.02,3.57-14.35-0.73-14.73-9.95c-0.05-1.23-0.01-2.46-0.01-3.64
			c-4.15,3.51-7.87,7.37-12.21,10.15c-7.26,4.65-15.36,5.67-23.72,4.09c-3.68-0.7-6.73-2.42-8.53-6.02
			c-3.02,1.91-5.81,4.02-8.87,5.53c-3.97,1.97-8.19,1.88-11.62-1.18c-3.54-3.16-4.57-7.51-3.53-12.37c0.26-1.21,0.2-2.49,0.35-4.52
			c-1.98,2.88-3.5,5.27-5.19,7.51c-3.53,4.71-7.51,8.84-13.04,10.93c-6.86,2.59-13.07-1.86-13.25-9.57
			c-0.04-1.47-0.01-2.94-0.01-5.09c-3.26,3.01-5.89,5.79-8.84,8.11c-8.54,6.72-18.07,8.92-28.49,6.22
			c-9.42-2.44-15.41-11.15-15.98-21.28c-1.32-23.38,7.8-41.4,26.47-53.8c7.64-5.08,16.35-6.53,25.26-5.28
			c6.74,0.95,9.45,7.36,6.51,13.87c-2.21,4.87-8.8,8.27-13.14,7c-2.53-0.74-3.81-2.31-4.13-5.24c1.25-0.36,2.51-0.56,3.63-1.1
			c1.35-0.64,3.06-1.26,3.72-2.45c0.83-1.48,1.33-3.73,0.86-5.26c-0.31-1.02-2.56-1.9-3.97-1.94c-7.12-0.2-12.7,3.56-17.27,8.81
			c-11.06,12.69-16.65,27.76-15.27,45.05c1.07,13.42,10.66,19.33,23.38,14.82c10.02-3.56,16.42-11.52,20.97-21.27
			c3.78-8.1,8.79-14.98,16.74-18.84c9.48-4.6,18.91-4.64,28.44,1.17c-1.98,8.07-4.09,16.15-5.9,24.3
			c-0.94,4.24-2.58,8.46-1.06,13.01c1.11,3.32,3.03,4.52,6.21,3.25c5.37-2.14,8.23-7.07,10.64-11.98
			c3.77-7.67,7.46-15.48,10.12-23.62c1.92-5.88,5.23-7.96,10.51-8.04c1.29-0.02,2.58,0,4.04,0c4,13.17,7.17,26.26,2.14,39.96
			c0.21,0.2,0.42,0.39,0.63,0.59c2.05-1.48,4.21-2.82,6.12-4.48c5.9-5.11,9.54-12,13.13-18.94c6.72-13.01,17.28-19.2,31.16-18.33
			c4.13,0.26,8.16,2.4,12.25,3.69c-2.43,10.07-4.81,19.35-6.86,28.72c-0.62,2.81-0.66,5.89-0.34,8.77c0.39,3.52,3.33,5.44,6.15,3.63
			c3.21-2.06,6.26-4.9,8.44-8.11c2.93-4.31,4.89-9.35,7.45-13.97c0.64-1.16,1.99-1.87,3.02-2.79
			C310.33,589.72,310.64,590.11,310.95,590.49z M281.47,574.73c-6.76-1.11-12.7-0.38-17.54,4.64c-7.43,7.71-10.25,17.51-10.83,28.12
			c-0.14,2.56,0.27,5.68,3.27,6.85c2.84,1.11,4.94-0.73,6.98-2.4c0.85-0.7,1.6-1.55,2.32-2.41
			C274.01,599.65,277.99,587.57,281.47,574.73z M181.76,574.84c-8.06-1.48-14.43,0.19-19.39,6.32c-5.68,7-8.16,15.39-9,24.36
			c-0.31,3.28-0.41,7.16,2.95,8.73c3.44,1.6,6.15-1.05,8.48-3.48c5.4-5.62,8.84-12.59,11.64-19.89
			C178.42,585.69,179.96,580.31,181.76,574.84z M207.63,615.01c-0.11-0.1,0.37,0.56,1,0.91c4.41,2.42,10.19-0.8,10.64-6.74
			c0.53-6.94,0.1-13.99-0.29-20.97c-0.18-3.26-1.24-6.47-1.9-9.7c-0.27,0.04-0.54,0.09-0.81,0.13c-4,9.11-8.01,18.22-11.8,26.84
			c1.82,0.93,4.57,1.43,5.17,2.9C210.22,609.81,208.57,612.23,207.63,615.01z"/>
		<path class="st1" d="M405.33,546.93c-6.52,5.71-13.19,6.21-20.22,4.74c-2.73-0.57-5.48-1.07-8.24-1.38
			c-7.04-0.79-13.62,0.83-19.8,4.97c0.88-8.19,8.48-15.63,15.95-16.34c7.05-0.67,13.61,2.08,20.43,2.81
			c4.87,0.52,9.85-0.05,14.78-0.18c1.13-0.03,2.26-0.23,3.82-0.39c-1.29,6.24-4.41,10.86-7.65,15.35
			c-7.14,9.91-16.12,17.87-24.88,26.07c-7.69,7.19-15.11,14.69-22.64,22.08c-0.43,0.43-0.69,1.06-1.28,2c2-0.13,3.57-0.09,5.09-0.36
			c4.33-0.74,8.3,0.27,11.46,3.33c8.07,7.82,15.15,3.56,20.2-3.11c3.46-4.57,6.12-9.91,8.63-15.17
			c4.71-9.87,10.99-17.88,21.43-20.91c3.43-1,7.29-1.26,10.83-0.8c10.48,1.37,13.48,12.05,10.94,22.18
			c-0.5,1.98-1.05,3.96-1.79,5.84c-1.12,2.82,0.3,4.14,2.52,4.03c1.78-0.09,4.09-0.83,5.14-2.18c2.84-3.67,5.52-7.59,7.56-11.8
			c4.73-9.79,11.76-16.31,22.09-18.13c3.09-0.55,6.51-0.21,9.58,0.57c4.19,1.06,6.05,5.56,4.97,10.06
			c-1.17,4.83-4.1,8.34-7.74,11.06c-5.46,4.08-11.57,6.59-18.39,6.46c-3.02-0.06-4.49,1.11-4.18,4.44c0.13,1.36-0.09,2.76,0.05,4.12
			c0.63,6.06,5.11,9.32,10.51,8.12c12.07-2.68,20.16-10.72,25.73-21.97c1.21-2.45,1.18-2.47,4.18-2.28
			c-2.75,7.85-7.14,14.38-13.08,19.62c-6.82,6.01-14.35,10.53-23.63,10.68c-10.55,0.17-14.2-6.72-14.45-15.65
			c-0.03-1.02,0-2.04,0-3.51c-0.8,0.61-1.47,1.03-2.05,1.57c-3.99,3.78-8.45,6.22-14.02,5.93c-0.84-0.04-1.89,0.78-2.57,1.49
			c-4.56,4.73-9.68,8.25-16.08,9.65c-10.1,2.21-19.32-1.74-20.32-15.32c-1.02,1.38-1.71,2.25-2.33,3.18
			c-3.95,5.99-8.88,10.62-15.78,12.34c-5.39,1.35-10.48-0.7-15.59-2.01c-5.62-1.43-11.16-2.44-16.89-0.56
			c-1.47,0.48-3.2,0.07-5.15,0.07c1.22-5.12,4.12-8.87,7.26-12.16c6.61-6.93,13.55-13.51,20.46-20.12
			c9.23-8.83,18.66-17.42,27.78-26.38c2.57-2.52,4.37-5.92,6.46-8.96C404.81,549.47,404.84,548.65,405.33,546.93z M427.41,574.34
			c-0.34,0.08-1.62,0.26-2.83,0.65c-4.74,1.53-7.74,5.27-10.11,9.53c-4.22,7.58-7.3,15.62-5.04,24.58c0.54,2.14,2.67,4.8,4.58,5.39
			c5.27,1.64,14.98-5.33,16.25-10.98c0.05-0.22,0.13-0.47,0.08-0.67c-1.97-7.33,1.25-13.01,5.15-18.52
			c0.51-0.73,0.83-1.89,0.72-2.78C435.62,576.8,432.86,574.36,427.41,574.34z M466.03,593.62c5.88,2.01,17.86-5.2,19.78-12.85
			c0.37-1.47,0.44-3.77-0.36-4.61c-0.98-1.03-3.13-1.51-4.6-1.23C474.28,576.22,467.35,585.09,466.03,593.62z"/>
		<path class="st1" d="M349.59,440.98c11.38-5.71,23.16-9.48,35.68-9.99c8.92-0.36,16.8,3.48,24.71,7.18
			c14.99,7.01,28.1,16.83,40.14,28.55c10.44,10.16,22.24,18.46,35.07,24.99c-3.12,6.27-11.58,8.53-16.73,7.36
			c-9.42-2.14-16.72-8.23-24.08-14.21c-12.5-10.16-24.46-21.07-38.44-29.09c-12.11-6.95-24.67-12.58-38.34-14.64
			C361.71,440.23,355.6,440.98,349.59,440.98z"/>
	</g>
</g>
</svg>
